<?xml version="1.0" encoding="UTF-8"?>
<svg width="1600" height="600" viewBox="0 0 1600 600" xmlns="http://www.w3.org/2000/svg">
    <!-- Fond -->
    <rect x="0" y="0" width="1600" height="600" fill="#f8f9fa"/>
    
    <!-- Titre -->
    <text x="800" y="50" font-size="36" fill="#2c3e50" text-anchor="middle" font-weight="bold">Héritage Abstrait</text>
    <!-- Fond -->
    <rect x="0" y="0" width="800" height="400" fill="#f5f5f5"/>
    
    <!-- Classe abstraite -->
    <rect x="100" y="100" width="300" height="200" fill="#f8f9fa" stroke="#3498db" stroke-width="3"/>
    <rect x="100" y="100" width="300" height="30" fill="#3498db"/>
    <text x="250" y="120" font-size="24" fill="white" text-anchor="middle">ClasseAbstraite</text>
    <line x1="100" y1="130" x2="400" y2="130" stroke="#3498db" stroke-width="2"/>
    
    <text x="150" y="160" font-size="18" fill="#3498db">@abstractmethod</text>
    <text x="150" y="190" font-size="18" fill="#3498db">def methode_abstraite(self):</text>
    <text x="150" y="220" font-size="18" fill="#3498db">    pass</text>
    
    <!-- Flèche d'héritage -->
    <line x1="400" y1="150" x2="800" y2="150" stroke="#3498db" stroke-width="3"/>
    <path d="M795 150 L805 145 L805 155 Z" fill="#3498db"/>
    
    <!-- Classe abstraite enfant -->
    <rect x="900" y="100" width="300" height="200" fill="white" stroke="#e74c3c" stroke-width="3"/>
    <text x="1050" y="130" font-size="24" fill="#e74c3c" text-anchor="middle">ClasseAbstraiteEnfant</text>
    <text x="1050" y="180" font-size="18" fill="#3498db" text-anchor="middle">@abstractmethod</text>
    <text x="1050" y="210" font-size="18" fill="#3498db" text-anchor="middle">def methode_enfant(self):</text>
    
    <!-- Flèche d'héritage -->
    <line x1="1200" y1="150" x2="1400" y2="150" stroke="#3498db" stroke-width="3"/>
    <path d="M1395 150 L1405 145 L1405 155 Z" fill="#3498db"/>
    
    <!-- Classe concrète -->
    <rect x="700" y="100" width="300" height="200" fill="#f8f9fa" stroke="#2ecc71" stroke-width="3"/>
    <rect x="700" y="100" width="300" height="30" fill="#2ecc71"/>
    <text x="850" y="120" font-size="24" fill="white" text-anchor="middle">ClasseConcrète</text>
    <line x1="700" y1="130" x2="1000" y2="130" stroke="#2ecc71" stroke-width="2"/>
    
    <text x="750" y="160" font-size="18" fill="#333">def methode_abstraite(self):</text>
    <text x="750" y="190" font-size="18" fill="#333">    # Implémentation concrète</text>
    <text x="750" y="220" font-size="18" fill="#333">    pass</text>
    
    <!-- Légende -->
    <rect x="200" y="450" width="1200" height="100" fill="white" stroke="#3498db" stroke-width="2"/>
    <text x="400" y="480" font-size="20" fill="#3498db">Classe abstraite avec méthode abstraite</text>
    <text x="400" y="510" font-size="20" fill="#2ecc71">Classe concrète qui implémente la méthode</text>
    
    <!-- Bulles d'explication -->
    <circle cx="150" cy="160" r="10" fill="white" stroke="#3498db" stroke-width="2"/>
    <text x="165" y="165" font-size="16" fill="#3498db">*</text>
    <line x1="150" y1="170" x2="150" y2="200" stroke="#3498db" stroke-width="2"/>
    <text x="100" y="220" font-size="14" fill="#3498db">Décorateur @abstractmethod</text>
</svg>
