<?xml version="1.0" encoding="UTF-8" standalone="no"?>
<svg width="600" height="450" xmlns="http://www.w3.org/2000/svg">
  <!-- Fond -->
  <rect width="600" height="450" fill="#f8f9fa" rx="10" ry="10"/>
  
  <!-- Titre -->
  <text x="300" y="40" font-family="Arial" font-size="20" font-weight="bold" text-anchor="middle" fill="#2c3e50">Gestionnaires de contexte en Python (with)</text>
  
  <!-- Sous-titre -->
  <text x="300" y="70" font-family="Arial" font-size="16" font-style="italic" text-anchor="middle" fill="#7f8c8d">Cycle de vie d'un gestionnaire de contexte</text>
  
  <!-- Phase 1 - Entrée -->
  <rect x="190" y="100" width="220" height="80" fill="#e8f4fd" stroke="#3498db" stroke-width="2" rx="10" ry="10"/>
  <text x="300" y="130" font-family="Arial" font-size="16" font-weight="bold" text-anchor="middle">Entrée dans le contexte</text>
  <text x="300" y="155" font-family="Arial" font-size="14" text-anchor="middle">__enter__() est appelé</text>
  
  <!-- Flèche -->
  <line x1="300" y1="180" x2="300" y2="210" stroke="#333" stroke-width="2"/>
  <polygon points="300,210 295,200 305,200" fill="#333"/>
  
  <!-- Phase 2 - Exécution -->
  <rect x="190" y="210" width="220" height="80" fill="#e8f7f2" stroke="#27ae60" stroke-width="2" rx="10" ry="10"/>
  <text x="300" y="240" font-family="Arial" font-size="16" font-weight="bold" text-anchor="middle">Exécution du bloc with</text>
  <text x="300" y="265" font-family="Arial" font-size="14" text-anchor="middle">Le code à l'intérieur du bloc</text>
  
  <!-- Flèche -->
  <line x1="300" y1="290" x2="300" y2="320" stroke="#333" stroke-width="2"/>
  <polygon points="300,320 295,310 305,310" fill="#333"/>
  
  <!-- Phase 3 - Sortie -->
  <rect x="190" y="320" width="220" height="80" fill="#fef5e9" stroke="#e67e22" stroke-width="2" rx="10" ry="10"/>
  <text x="300" y="350" font-family="Arial" font-size="16" font-weight="bold" text-anchor="middle">Sortie du contexte</text>
  <text x="300" y="375" font-family="Arial" font-size="14" text-anchor="middle">__exit__() est appelé</text>
  
  <!-- Exception dans le bloc -->
  <rect x="50" y="220" width="120" height="60" fill="#fdeaef" stroke="#e74c3c" stroke-width="2" rx="5" ry="5"/>
  <text x="110" y="250" font-family="Arial" font-size="14" font-weight="bold" text-anchor="middle">Exception</text>
  <text x="110" y="270" font-family="Arial" font-size="12" text-anchor="middle">Une erreur se produit</text>
  
  <!-- Flèche d'exception -->
  <line x1="190" y1="250" x2="170" y2="250" stroke="#e74c3c" stroke-width="2"/>
  <polygon points="170,250 180,245 180,255" fill="#e74c3c"/>
  
  <!-- Gestion dans __exit__ -->
  <rect x="430" y="330" width="120" height="60" fill="#f3e7ff" stroke="#9b59b6" stroke-width="2" rx="5" ry="5"/>
  <text x="490" y="355" font-family="Arial" font-size="14" font-weight="bold" text-anchor="middle">Gestion dans</text>
  <text x="490" y="375" font-family="Arial" font-size="14" font-weight="bold" text-anchor="middle">__exit__</text>
  
  <!-- Flèche de gestion -->
  <line x1="410" y1="360" x2="430" y2="360" stroke="#9b59b6" stroke-width="2"/>
  <polygon points="430,360 420,355 420,365" fill="#9b59b6"/>
  
  <!-- Flèche de propagation d'exception -->
  <path d="M 110,280 Q 110,320 190,360" stroke="#e74c3c" stroke-width="1.5" stroke-dasharray="5,3" fill="none"/>
  <text x="120" y="320" font-family="Arial" font-size="12" fill="#e74c3c" font-style="italic">propagation</text>
  
  <!-- Exemple de code -->
  <rect x="50" y="120" width="120" height="80" fill="#f5f5f5" stroke="#ddd" stroke-width="1" rx="5" ry="5"/>
  <text x="60" y="135" font-family="Consolas, monospace" font-size="10" fill="#333">with open("file.txt") as f:</text>
  <text x="60" y="150" font-family="Consolas, monospace" font-size="10" fill="#333">    data = f.read()</text>
  <text x="60" y="165" font-family="Consolas, monospace" font-size="10" fill="#333">    # Le fichier est</text>
  <text x="60" y="180" font-family="Consolas, monospace" font-size="10" fill="#333">    # automatiquement</text>
  <text x="60" y="195" font-family="Consolas, monospace" font-size="10" fill="#333">    # fermé à la sortie</text>
</svg>
