<?xml version="1.0" encoding="UTF-8" standalone="no"?>
<svg width="600" height="450" xmlns="http://www.w3.org/2000/svg">
  <!-- Fond -->
  <rect width="600" height="450" fill="#f8f9fa" rx="10" ry="10"/>
  
  <!-- Titre -->
  <text x="300" y="40" font-family="Arial" font-size="20" font-weight="bold" text-anchor="middle" fill="#2c3e50">Lever des exceptions avec raise</text>
  
  <!-- Vérification de condition -->
  <rect x="100" y="80" width="200" height="70" fill="#e8f7f2" stroke="#27ae60" stroke-width="2" rx="10" ry="10"/>
  <text x="200" y="110" font-family="Arial" font-size="16" font-weight="bold" text-anchor="middle">Vérification de condition</text>
  <text x="200" y="130" font-family="Arial" font-size="14" text-anchor="middle">if age < 0:</text>
  
  <!-- Flèche de condition à exception -->
  <line x1="300" y1="115" x2="400" y2="115" stroke="#e74c3c" stroke-width="2"/>
  <polygon points="400,115 390,110 390,120" fill="#e74c3c"/>
  <text x="350" y="100" font-family="Arial" font-size="14" fill="#e74c3c" font-weight="bold">Condition invalide</text>
  
  <!-- Lever exception -->
  <rect x="400" y="80" width="200" height="70" fill="#fdeaef" stroke="#e74c3c" stroke-width="2" rx="10" ry="10"/>
  <text x="500" y="110" font-family="Arial" font-size="16" font-weight="bold" text-anchor="middle">Lever une exception</text>
  <text x="500" y="130" font-family="Arial" font-size="14" text-anchor="middle">raise ValueError("Âge négatif")</text>
  
  <!-- Flèche de condition à continuer -->
  <line x1="200" y1="150" x2="200" y2="200" stroke="#27ae60" stroke-width="2"/>
  <polygon points="200,200 195,190 205,190" fill="#27ae60"/>
  <text x="240" y="175" font-family="Arial" font-size="14" fill="#27ae60" font-weight="bold">Condition valide</text>
  
  <!-- Continuer -->
  <rect x="100" y="200" width="200" height="70" fill="#e8f4fd" stroke="#3498db" stroke-width="2" rx="10" ry="10"/>
  <text x="200" y="230" font-family="Arial" font-size="16" font-weight="bold" text-anchor="middle">Continuer l'exécution</text>
  <text x="200" y="250" font-family="Arial" font-size="14" text-anchor="middle">print(f"Âge valide : {age}")</text>
  
  <!-- Flèche de lever à propagation -->
  <line x1="500" y1="150" x2="500" y2="200" stroke="#e67e22" stroke-width="2"/>
  <polygon points="500,200 495,190 505,190" fill="#e67e22"/>
  
  <!-- Propagation -->
  <rect x="400" y="200" width="200" height="70" fill="#fef5e9" stroke="#e67e22" stroke-width="2" rx="10" ry="10"/>
  <text x="500" y="230" font-family="Arial" font-size="16" font-weight="bold" text-anchor="middle">Propagation</text>
  <text x="500" y="250" font-family="Arial" font-size="14" text-anchor="middle">Remonte la pile d'appels</text>
  
  <!-- Flèche de propagation à interception -->
  <line x1="500" y1="270" x2="500" y2="320" stroke="#9b59b6" stroke-width="2"/>
  <polygon points="500,320 495,310 505,310" fill="#9b59b6"/>
  
  <!-- Interception -->
  <rect x="400" y="320" width="200" height="70" fill="#f3e7ff" stroke="#9b59b6" stroke-width="2" rx="10" ry="10"/>
  <text x="500" y="350" font-family="Arial" font-size="16" font-weight="bold" text-anchor="middle">Interception</text>
  <text x="500" y="370" font-family="Arial" font-size="14" text-anchor="middle">except ValueError as err:</text>
  
  <!-- Exemple de code -->
  <rect x="50" y="300" width="300" height="130" fill="#f5f5f5" stroke="#ddd" stroke-width="1" rx="5" ry="5"/>
  <text x="60" y="320" font-family="Consolas, monospace" font-size="12" fill="#333">def verifier_age(age):</text>
  <text x="60" y="340" font-family="Consolas, monospace" font-size="12" fill="#333">    if age < 0:</text>
  <text x="60" y="360" font-family="Consolas, monospace" font-size="12" fill="#333">        raise ValueError("L'âge ne peut</text>
  <text x="60" y="380" font-family="Consolas, monospace" font-size="12" fill="#333">                         pas être négatif")</text>
  <text x="60" y="400" font-family="Consolas, monospace" font-size="12" fill="#333">    return True</text>
  <text x="60" y="420" font-family="Consolas, monospace" font-size="12" fill="#333">try:</text>
  <text x="60" y="440" font-family="Consolas, monospace" font-size="12" fill="#333">    verifier_age(-5)  # Exception levée</text>
</svg>
